<?xml version="1.0" encoding="iso-8859-1"?>
<svg xmlns="http://www.w3.org/2000/svg" xmlns:xlink="http://www.w3.org/1999/xlink" version="1.1" id="Capa_1" x="0px" y="0px" viewBox="0 0 39.761 39.761" style="enable-background:new 0 0 39.761 39.761;" xml:space="preserve" width="512px" height="512px">
<path d="M5.937,0h19.364c0.317,0,0.603,0.143,0.809,0.349l8.492,8.508c0.222,0.19,0.349,0.476,0.349,0.794  V38.65c0,0.603-0.508,1.111-1.127,1.111H5.937c-0.619,0-1.127-0.508-1.127-1.111V1.127C4.81,0.508,5.318,0,5.937,0L5.937,0z   M26.428,3.825v4.714h4.698L26.428,3.825z M24.174,2.238H7.064v35.285h25.649V10.778h-7.412c-0.619,0-1.127-0.508-1.127-1.127V2.238  z" fill="#FFFFFF"/>
</svg>
