<?xml version="1.0" encoding="UTF-8" standalone="no"?>
<svg
   xmlns:dc="http://purl.org/dc/elements/1.1/"
   xmlns:cc="http://creativecommons.org/ns#"
   xmlns:rdf="http://www.w3.org/1999/02/22-rdf-syntax-ns#"
   xmlns:svg="http://www.w3.org/2000/svg"
   xmlns="http://www.w3.org/2000/svg"
   xmlns:sodipodi="http://sodipodi.sourceforge.net/DTD/sodipodi-0.dtd"
   xmlns:inkscape="http://www.inkscape.org/namespaces/inkscape"
   viewBox="0 0 1427.9783 301.99252"
   height="301.99252"
   width="1427.9783"
   xml:space="preserve"
   id0="svg2"
   version="1.1"
   id="svg15"
   sodipodi:docname="logo.svg"
   inkscape:version="0.92.1 r15371"><sodipodi:namedview
     pagecolor="#ffffff"
     bordercolor="#666666"
     borderopacity="1"
     objecttolerance="10"
     gridtolerance="10"
     guidetolerance="10"
     inkscape:pageopacity="0"
     inkscape:pageshadow="2"
     inkscape:window-width="640"
     inkscape:window-height="480"
     id="namedview17"
     showgrid="false"
     inkscape:zoom="0.17878788"
     inkscape:cx="713.52254"
     inkscape:cy="145.48228"
     inkscape:window-x="263"
     inkscape:window-y="385"
     inkscape:window-maximized="0"
     inkscape:current-layer="svg15" /><metadata
     id="metadata8"><rdf:RDF><cc:Work
         rdf:about=""><dc:format>image/svg+xml</dc:format><dc:type
           rdf:resource="http://purl.org/dc/dcmitype/StillImage" /></cc:Work></rdf:RDF></metadata><defs
     id="defs6" /><g
     transform="matrix(1.3333333,0,0,-1.3333333,-114.47746,816.51025)"
     id="g10"><g
       transform="translate(279.9951,385.8887)"
       id="g12"><path
         id="path14"
         style="fill:#ffffff;fill-opacity:1;fill-rule:nonzero;stroke:none"
         d="M 0,0 H -194.137 V 226.494 H 0 v -51.77 H -142.367 V 139.132 H -32.356 V 87.361 H -142.367 V 51.77 H 0 Z"
         inkscape:connector-curvature="0" /></g><g
       transform="translate(503.2534,560.6123)"
       id="g16"><path
         id="path18"
         style="fill:#ffffff;fill-opacity:1;fill-rule:nonzero;stroke:none"
         d="m 0,0 h -79.273 v -174.724 h -51.77 V 0 h -79.272 V 51.77 H 0 Z"
         inkscape:connector-curvature="0" /></g><g
       transform="translate(726.5078,385.8887)"
       id="g20"><path
         id="path22"
         style="fill:#ffffff;fill-opacity:1;fill-rule:nonzero;stroke:none"
         d="m 0,0 h -51.771 v 87.361 h -100.304 l 22.65,51.771 h 77.654 v 87.362 H 0 Z m -158.546,0 h -51.77 v 226.494 h 51.77 z"
         inkscape:connector-curvature="0" /></g><g
       transform="translate(933.583,385.8887)"
       id="g24"><path
         id="path26"
         style="fill:#ffffff;fill-opacity:1;fill-rule:nonzero;stroke:none"
         d="M 0,0 H -194.138 V 226.494 H 0 v -51.77 H -142.367 V 139.132 H -32.356 V 87.361 H -142.367 V 51.77 H 0 Z"
         inkscape:connector-curvature="0" /></g><g
       transform="translate(1156.8418,385.8887)"
       id="g28"><path
         id="path30"
         style="fill:#ffffff;fill-opacity:1;fill-rule:nonzero;stroke:none"
         d="M 0,0 H -51.771 L -158.546,128.464 V 0 h -51.77 v 226.494 h 51.901 L -51.771,98.196 V 226.494 H 0 Z"
         inkscape:connector-curvature="0" /></g></g></svg>