<svg xmlns="http://www.w3.org/2000/svg" viewBox="0 0 286.054 286.054"><path fill="#F29600" d="M143.027 0C64.04 0 0 64.04 0 143.027c0 78.996 64.04 143.027 143.027 143.027 78.996 0 143.027-64.022 143.027-143.027C286.054 64.04 222.022 0 143.027 0zm0 259.236c-64.183 0-116.209-52.026-116.209-116.209S78.844 26.818 143.027 26.818s116.209 52.026 116.209 116.209-52.026 116.209-116.209 116.209zm.009-196.51c-10.244 0-17.995 5.346-17.995 13.981v79.201c0 8.644 7.75 13.972 17.995 13.972 9.994 0 17.995-5.551 17.995-13.972V76.707c-.001-8.43-8.001-13.981-17.995-13.981zm0 124.997c-9.842 0-17.852 8.01-17.852 17.86 0 9.833 8.01 17.843 17.852 17.843s17.843-8.01 17.843-17.843c-.001-9.851-8.001-17.86-17.843-17.86z"/></svg>
